<svg width="709" height="866" viewBox="0 0 709 866" fill="none" xmlns="http://www.w3.org/2000/svg">
<path d="M-169.761 972.045C-112.406 980.651 -69.2087 931.928 52.041 942.454C88.4388 945.618 132.081 954.131 190.459 942.191C232.275 933.65 259.064 919.223 267.269 914.589C280.234 907.279 315.048 885.909 337.362 849.293C351.574 825.981 344.983 822.269 363.542 792.557C370.298 781.758 379.721 769.882 398.546 746.159C414.694 725.822 422.976 715.438 433.566 704.9C448.206 690.347 458.378 680.227 475.206 670.496C483.354 665.773 489.697 663.094 543.235 646.337C565.202 639.457 586.921 632.101 609.08 625.623C638.747 616.941 649.516 614.686 663.314 605.587C678.102 595.831 685.945 585.119 690.237 579.137C693.066 575.184 704.306 558.909 707.681 534.485C711.728 505.07 701.779 482.533 689.852 455.576C679.442 432.027 667.929 415.498 661.129 405.857C644.866 382.781 635.134 368.975 617.034 356.167C593.525 339.541 586.489 346.259 544.435 327.135C531.811 321.394 535.551 322.191 458.588 275.812C443.933 266.975 433.157 260.545 418.954 250.143C385.121 225.373 379.113 212.766 376.802 205.649C375.666 202.121 375.507 200.199 376.711 176.42C379.227 126.716 380.51 122.483 376.514 112.926C368.117 92.8152 349.523 80.6641 343.714 76.9507C331.331 69.0486 319.324 65.4214 295.329 58.167C264.003 48.6919 261.456 51.4678 246.961 44.9999C226.775 36.0102 215.827 23.5913 202.908 8.56904C179.901 -18.1734 182.062 -28.5018 170.084 -41.1421C141.172 -71.6574 73.8583 -69.2055 51.0708 -68.3727C-48.2602 -64.7577 -192.843 56.7994 -277.555 229.164C-440.347 560.352 -318.472 949.727 -169.761 972.045Z" fill="#8998B8"/>
</svg>
