<svg width="493" height="750" viewBox="0 0 493 750" fill="none" xmlns="http://www.w3.org/2000/svg">
<path d="M-185.993 843.662C-159.32 847.321 -159.136 832.959 -98.1611 828.061C-49.0458 824.109 -31.1325 831.971 40.2573 827.798C72.1959 825.935 86.6437 823.301 97.354 820.822C120.966 815.37 151.535 808.31 171.954 788.069C183.229 776.89 176.362 776.605 200.368 738.287C212.57 718.807 215.654 716.79 220.043 705.593C222.427 699.496 223.217 695.77 228.702 662.671C233.082 636.205 233.436 633.508 235.188 626.621C239.767 608.616 242.046 599.614 248.254 590.559C254.064 582.101 266.09 573.333 289.894 556.155C308.143 542.996 317.257 536.409 324.968 532.059C347.337 519.458 357.023 518.739 379.807 504.498C386.374 500.404 383.232 501.914 401.729 489.008C431.225 468.422 437.796 465.564 454.349 452.87C470.616 440.399 478.759 434.157 482.022 428.787C492.572 411.456 482.507 400.704 481.846 372.146C481.031 336.974 495.841 334.071 491.266 310.347C486.032 283.229 462.442 265.158 449.347 255.126C412.203 226.668 368.294 218.304 328.375 211.11C275.613 201.601 253.428 206.097 189.892 190.784C167.791 185.448 138.682 177.235 134.877 161.719C132.81 153.275 140.027 149.969 141.395 135.963C141.506 134.845 143.472 110.662 125.896 94.8446C107.899 78.6551 87.6356 87.6472 64.3081 74.3132C36.2998 58.3066 45.1295 33.6787 28.9838 17.739C-1.85365 -12.6536 -114.399 -2.14552 -190.662 35.3181C-361.661 119.338 -357.953 342.723 -356.381 437.232C-355.065 516.917 -338.249 570.741 -316.192 641.389C-287.258 734.251 -254.698 834.243 -185.993 843.662Z" fill="#7180A6"/>
</svg>
