<svg width="69" height="33" viewBox="0 0 69 33" fill="none" xmlns="http://www.w3.org/2000/svg">
<g clip-path="url(#clip0)">
<path d="M8.627 20.8646C13.3922 20.8646 17.254 16.957 17.254 12.1353H0C0 16.957 3.86176 20.8646 8.627 20.8646Z" fill="#465FA1"/>
<path d="M25.8729 3.43823C30.6382 3.43823 34.4999 7.34581 34.4999 12.1676H17.2539C17.2539 7.34581 21.1157 3.43823 25.8729 3.43823Z" fill="#74AED8"/>
<path d="M43.127 20.8646C47.8922 20.8646 51.754 16.957 51.754 12.1353H34.5C34.5 16.957 38.3618 20.8646 43.127 20.8646Z" fill="#E4D6C7"/>
<path d="M60.3809 20.8646C65.1461 20.8646 69.0079 16.957 69.0079 12.1353H51.7539C51.7539 16.957 55.6157 20.8646 60.3809 20.8646Z" fill="#465FA1"/>
<path d="M44.3985 33.0001C49.1637 33.0001 53.0255 29.0925 53.0255 24.2708H35.7715C35.7715 29.0925 39.6333 33.0001 44.3985 33.0001Z" fill="#74AED8"/>
<path d="M27.1446 15.3796C31.9098 15.3796 35.7716 19.2872 35.7716 24.109H18.5176C18.5176 19.2872 22.3793 15.3796 27.1446 15.3796Z" fill="#5B84BC"/>
<path d="M44.3985 8.72935C49.1637 8.72935 53.0255 4.82177 53.0255 0H35.7715C35.7715 4.82177 39.6333 8.72935 44.3985 8.72935Z" fill="#5B84BC"/>
</g>
<defs>
<clipPath id="clip0">
<rect width="69" height="33" fill="white"/>
</clipPath>
</defs>
</svg>
