<svg width="768" height="866" viewBox="0 0 768 866" fill="none" xmlns="http://www.w3.org/2000/svg">
<path d="M-110.761 974.045C-53.4061 982.651 -10.2087 933.928 111.041 944.454C147.439 947.618 191.081 956.131 249.459 944.191C291.275 935.65 318.064 921.223 326.269 916.589C339.234 909.279 374.048 887.909 396.362 851.293C410.574 827.981 403.983 824.269 422.542 794.557C429.298 783.758 438.721 771.882 457.546 748.159C473.694 727.822 481.976 717.438 492.566 706.9C507.206 692.347 517.378 682.227 534.206 672.496C542.354 667.773 548.697 665.094 602.235 648.337C624.202 641.457 645.921 634.101 668.08 627.623C697.747 618.941 708.516 616.686 722.314 607.587C737.102 597.831 744.945 587.119 749.237 581.137C752.066 577.184 763.306 560.909 766.681 536.485C770.728 507.07 760.779 484.533 748.852 457.576C738.442 434.027 726.929 417.498 720.129 407.857C703.866 384.781 694.134 370.975 676.034 358.167C652.525 341.541 645.489 348.259 603.435 329.135C590.811 323.394 594.551 324.191 517.588 277.812C502.933 268.975 492.157 262.545 477.954 252.143C444.121 227.373 438.113 214.766 435.802 207.649C434.666 204.121 434.507 202.199 435.711 178.42C438.227 128.716 439.51 124.483 435.514 114.926C427.117 94.8152 408.523 82.6641 402.714 78.9507C390.331 71.0486 378.324 67.4214 354.329 60.167C323.003 50.6919 320.456 53.4678 305.961 46.9999C285.775 38.0101 274.827 25.5912 261.908 10.569C238.901 -16.1735 241.062 -26.5018 229.084 -39.1421C200.172 -69.6574 132.858 -67.2057 110.071 -66.3727C10.7399 -62.7578 -133.843 58.7994 -218.555 231.164C-381.347 562.352 -259.472 951.727 -110.761 974.045Z" fill="#C89D8B"/>
</svg>
